<svg width="25" height="25" viewBox="0 0 25 25" fill="none" xmlns="http://www.w3.org/2000/svg">
<path d="M3.66666 5.5C3.66666 4.39543 4.56209 3.5 5.66666 3.5H8.66666C9.77123 3.5 10.6667 4.39543 10.6667 5.5V8.5C10.6667 9.60457 9.77123 10.5 8.66666 10.5H5.66666C4.56209 10.5 3.66666 9.60457 3.66666 8.5V5.5Z" stroke="#BBA8BD" stroke-width="1.5"/>
<path d="M3.66666 16.5C3.66666 15.3954 4.56209 14.5 5.66666 14.5H8.66666C9.77123 14.5 10.6667 15.3954 10.6667 16.5V19.5C10.6667 20.6046 9.77123 21.5 8.66666 21.5H5.66666C4.56209 21.5 3.66666 20.6046 3.66666 19.5V16.5Z" stroke="#BBA8BD" stroke-width="1.5"/>
<path d="M14.6667 5.5C14.6667 4.39543 15.5621 3.5 16.6667 3.5H19.6667C20.7712 3.5 21.6667 4.39543 21.6667 5.5V8.5C21.6667 9.60457 20.7712 10.5 19.6667 10.5H16.6667C15.5621 10.5 14.6667 9.60457 14.6667 8.5V5.5Z" stroke="#BBA8BD" stroke-width="1.5"/>
<path d="M14.6667 16.5C14.6667 15.3954 15.5621 14.5 16.6667 14.5H19.6667C20.7712 14.5 21.6667 15.3954 21.6667 16.5V19.5C21.6667 20.6046 20.7712 21.5 19.6667 21.5H16.6667C15.5621 21.5 14.6667 20.6046 14.6667 19.5V16.5Z" stroke="#BBA8BD" stroke-width="1.5"/>
</svg>
