<svg width="25" height="25" viewBox="0 0 25 25" fill="none" xmlns="http://www.w3.org/2000/svg">
<path d="M16.6667 2.75C15.1479 2.75 13.9167 3.98122 13.9167 5.5V8.5C13.9167 10.0188 15.1479 11.25 16.6667 11.25H19.6667C21.1854 11.25 22.4167 10.0188 22.4167 8.5V5.5C22.4167 3.98122 21.1854 2.75 19.6667 2.75H16.6667Z" fill="#6E315B"/>
<path d="M5.66666 2.75C4.14787 2.75 2.91666 3.98122 2.91666 5.5V8.5C2.91666 10.0188 4.14787 11.25 5.66666 11.25H8.66666C10.1854 11.25 11.4167 10.0188 11.4167 8.5V5.5C11.4167 3.98122 10.1854 2.75 8.66666 2.75H5.66666Z" fill="#6E315B"/>
<path d="M5.66666 13.75C4.14787 13.75 2.91666 14.9812 2.91666 16.5V19.5C2.91666 21.0188 4.14787 22.25 5.66666 22.25H8.66666C10.1854 22.25 11.4167 21.0188 11.4167 19.5V16.5C11.4167 14.9812 10.1854 13.75 8.66666 13.75H5.66666Z" fill="#6E315B"/>
<path d="M16.6667 13.75C15.1479 13.75 13.9167 14.9812 13.9167 16.5V19.5C13.9167 21.0188 15.1479 22.25 16.6667 22.25H19.6667C21.1854 22.25 22.4167 21.0188 22.4167 19.5V16.5C22.4167 14.9812 21.1854 13.75 19.6667 13.75H16.6667Z" fill="#6E315B"/>
</svg>
