<svg width="24" height="25" viewBox="0 0 24 25" fill="none" xmlns="http://www.w3.org/2000/svg">
<path d="M9.27605 4.49128C10.9116 3.34641 13.0884 3.34641 14.7239 4.49128L19.7239 7.99128C20.9937 8.88014 21.75 10.3326 21.75 11.8826V17.5C21.75 20.1234 19.6234 22.25 17 22.25H15C14.5858 22.25 14.25 21.9142 14.25 21.5V17.5C14.25 16.8096 13.6904 16.25 13 16.25H11C10.3096 16.25 9.75 16.8096 9.75 17.5V21.5C9.75 21.9142 9.41421 22.25 9 22.25H7C4.37665 22.25 2.25 20.1234 2.25 17.5V11.8826C2.25 10.3326 3.00625 8.88014 4.27605 7.99128L9.27605 4.49128Z" fill="#6E315B"/>
</svg>
