<svg width="25" height="25" viewBox="0 0 25 25" fill="none" xmlns="http://www.w3.org/2000/svg">
<path d="M5.33333 9.5C5.33333 6.18629 8.46733 3.5 12.3333 3.5C16.1993 3.5 19.3333 6.18629 19.3333 9.5M5.33333 9.5C6.4379 9.5 7.33333 10.3954 7.33333 11.5V15.5C7.33333 16.6046 6.4379 17.5 5.33333 17.5C4.22876 17.5 3.33333 16.6046 3.33333 15.5V11.5C3.33333 10.3954 4.22876 9.5 5.33333 9.5ZM19.3333 9.5C20.4379 9.5 21.3333 10.3954 21.3333 11.5V15.5C21.3333 16.6046 20.4379 17.5 19.3333 17.5M19.3333 9.5C18.2288 9.5 17.3333 10.3954 17.3333 11.5V15.5C17.3333 16.6046 18.2288 17.5 19.3333 17.5M19.3333 17.5V18.5C19.3333 20.1569 17.9902 21.5 16.3333 21.5H12.3333" stroke="#BBA8BD" stroke-width="1.5" stroke-linecap="round" stroke-linejoin="round"/>
</svg>
