<svg width="25" height="25" viewBox="0 0 25 25" fill="none" xmlns="http://www.w3.org/2000/svg">
<path d="M6.12944 8.867C6.49831 6.34446 9.04091 4.25 12.3333 4.25C15.6257 4.25 18.1683 6.34446 18.5372 8.867C17.4066 9.20838 16.5833 10.258 16.5833 11.5V15.5C16.5833 16.7588 17.4291 17.82 18.5833 18.1465V18.5C18.5833 19.7426 17.576 20.75 16.3333 20.75H12.3333C11.9191 20.75 11.5833 21.0858 11.5833 21.5C11.5833 21.9142 11.9191 22.25 12.3333 22.25H16.3333C18.4044 22.25 20.0833 20.5711 20.0833 18.5V18.1465C21.2376 17.82 22.0833 16.7588 22.0833 15.5V11.5C22.0833 10.2284 21.2202 9.15832 20.0479 8.84374C19.6664 5.33959 16.2595 2.75 12.3333 2.75C8.40712 2.75 5.00025 5.33959 4.6188 8.84375C3.44644 9.15832 2.58333 10.2284 2.58333 11.5V15.5C2.58333 17.0188 3.81454 18.25 5.33333 18.25C6.85211 18.25 8.08333 17.0188 8.08333 15.5V11.5C8.08333 10.258 7.26004 9.20838 6.12944 8.867Z" fill="#6E315B"/>
</svg>
