<svg width="24" height="25" viewBox="0 0 24 25" fill="none" xmlns="http://www.w3.org/2000/svg">
<path d="M19 21.5C19 20.5807 18.8189 19.6705 18.4672 18.8212C18.1154 17.9719 17.5998 17.2003 16.9497 16.5503C16.2997 15.9002 15.5281 15.3846 14.6788 15.0328C13.8295 14.6811 12.9193 14.5 12 14.5C11.0807 14.5 10.1705 14.6811 9.32122 15.0328C8.47194 15.3846 7.70026 15.9002 7.05025 16.5503C6.40024 17.2003 5.88463 17.9719 5.53284 18.8212C5.18106 19.6705 5 20.5807 5 21.5M16 7.5C16 9.70914 14.2091 11.5 12 11.5C9.79086 11.5 8 9.70914 8 7.5C8 5.29086 9.79086 3.5 12 3.5C14.2091 3.5 16 5.29086 16 7.5Z" stroke="#BBA8BD" stroke-width="1.5" stroke-linecap="round" stroke-linejoin="round"/>
</svg>
