<svg width="24" height="25" viewBox="0 0 24 25" fill="none" xmlns="http://www.w3.org/2000/svg">
<path d="M7.25 7.5C7.25 4.87665 9.37665 2.75 12 2.75C14.6234 2.75 16.75 4.87665 16.75 7.5C16.75 10.1234 14.6234 12.25 12 12.25C9.37665 12.25 7.25 10.1234 7.25 7.5Z" fill="#6E315B"/>
<path d="M9.03419 14.3399C9.97446 13.9505 10.9822 13.75 12 13.75C13.0177 13.75 14.0255 13.9505 14.9658 14.3399C15.9061 14.7294 16.7604 15.3003 17.4801 16.0199C18.1997 16.7396 18.7706 17.5939 19.1601 18.5342C19.4079 19.1326 19.5792 19.7584 19.671 20.3966C19.8252 21.4681 18.9322 22.25 18 22.25H5.99998C5.06775 22.25 4.17481 21.4681 4.32893 20.3966C4.42074 19.7584 4.59205 19.1326 4.83992 18.5342C5.22939 17.5939 5.80025 16.7396 6.51991 16.0199C7.23956 15.3003 8.09391 14.7294 9.03419 14.3399Z" fill="#6E315B"/>
</svg>
